<svg xmlns="http://www.w3.org/2000/svg" width="43.914" height="34.498" viewBox="0 0 43.914 34.498">
  <g id="Group_34" data-name="Group 34" transform="translate(-10.054 -8.065)">
    <path id="Path_14" data-name="Path 14" d="M14.063,2H36.731V17.123H14.063V2Z" transform="translate(7 7.065)" fill="none" stroke="#f7f1e5" stroke-linecap="round" stroke-linejoin="round" stroke-width="2" fill-rule="evenodd"/>
    <path id="Path_15" data-name="Path 15" d="M14,4.213,25.642,12.96,36.667,4.213" transform="translate(7.063 5.698)" fill="none" stroke="#f7f1e5" stroke-linejoin="round" stroke-width="2"/>
    <path id="Path_17" data-name="Path 17" d="M4.883,28.762l-.383-.1.383.1a9.44,9.44,0,0,0,.739-3.534l.234-1.85.228-1.808a9.9,9.9,0,0,1,3.795-3.725,6.072,6.072,0,0,1,1.645-.606,1.763,1.763,0,0,1,.875-.011,2.052,2.052,0,0,1,.98.793.484.484,0,0,1-.08.692l-2.635,2.048-.112.087-.012.125-.173,1.832-.061.646.677-.341,6.084-3.066h0l.009,0a2.637,2.637,0,0,0,1.661-2.427h0l-.525-5.792a1.9,1.9,0,0,1,1.532-1.294,1.666,1.666,0,0,1,1.065.154,2.162,2.162,0,0,1,.932,1.055l.774,8.528h0a.664.664,0,0,1-.275.557l-7.234,6.206a7.43,7.43,0,0,0-2.083,2.748h0l-.413,1h0a1.874,1.874,0,0,1-1.739.766H6.03a.446.446,0,0,1-.062-.024,1.4,1.4,0,0,1-.239-.145,2.643,2.643,0,0,1-.586-.609A2.034,2.034,0,0,1,4.883,28.762Z" transform="translate(30.45 10.025)" fill="none" stroke="#f7f1e5" stroke-width="2"/>
    <path id="Path_24" data-name="Path 24" d="M23.228,28.762l.407-.1-.407.1a8.969,8.969,0,0,1-.785-3.534l-.248-1.85-.242-1.808a10.258,10.258,0,0,0-4.03-3.725,6.71,6.71,0,0,0-1.747-.606,1.985,1.985,0,0,0-.929-.011,2.156,2.156,0,0,0-1.041.793.466.466,0,0,0,.085.692l2.8,2.048.119.087.013.125.183,1.832.065.646-.719-.341-6.461-3.066h0l-.01,0a2.638,2.638,0,0,1-1.764-2.427h0l.558-5.792a1.984,1.984,0,0,0-1.627-1.294,1.867,1.867,0,0,0-1.131.154,2.215,2.215,0,0,0-.99,1.055L4.5,20.264h0a.65.65,0,0,0,.292.557l7.683,6.206a7.489,7.489,0,0,1,2.212,2.748h0l.438,1h0a2.036,2.036,0,0,0,1.847.766H22.01a.492.492,0,0,0,.065-.024,1.511,1.511,0,0,0,.254-.145,2.723,2.723,0,0,0,.622-.609A1.938,1.938,0,0,0,23.228,28.762Z" transform="translate(6.555 10.025)" fill="none" stroke="#f7f1e5" stroke-width="2"/>
  </g>
</svg>
