<svg xmlns="http://www.w3.org/2000/svg" width="30.772" height="29.163" viewBox="0 0 30.772 29.163">
  <path id="Path_24" data-name="Path 24" d="M30.192,13.4,16.756.664a2.058,2.058,0,0,0-2.8,0l-2.79,2.644L14.7,6.662a2.447,2.447,0,0,1,2.421.534,2.153,2.153,0,0,1,.56,2.31l3.41,3.232a2.446,2.446,0,0,1,2.437.531,2.153,2.153,0,0,1,0,3.16,2.452,2.452,0,0,1-3.336,0A2.149,2.149,0,0,1,19.682,14L16.5,10.983v7.933a2.25,2.25,0,0,1,1.282,1.64,2.162,2.162,0,0,1-.659,1.943,2.451,2.451,0,0,1-3.334,0,2.153,2.153,0,0,1,0-3.16,2.369,2.369,0,0,1,.773-.488V10.845a2.358,2.358,0,0,1-.773-.487,2.152,2.152,0,0,1-.508-2.444L9.793,4.607.581,13.336a1.81,1.81,0,0,0,0,2.657L14.017,28.727a2.061,2.061,0,0,0,2.8,0L30.192,16.053a1.812,1.812,0,0,0,0-2.657" transform="translate(0 -0.113)" fill="#f7f1e5" />
</svg>
