<svg xmlns="http://www.w3.org/2000/svg" width="28.634" height="28.22" viewBox="0 0 28.634 28.22">
  <path id="iconmonstr-linkedin-3" d="M22.669,0H5.965A5.923,5.923,0,0,0,0,5.879V22.341A5.923,5.923,0,0,0,5.965,28.22h16.7a5.923,5.923,0,0,0,5.965-5.879V5.879A5.923,5.923,0,0,0,22.669,0ZM9.545,22.341H5.965V9.407H9.545ZM7.755,7.916A2.074,2.074,0,1,1,9.843,5.842,2.082,2.082,0,0,1,7.755,7.916ZM23.862,22.341H20.282V15.752c0-3.96-4.772-3.66-4.772,0v6.589H11.931V9.407H15.51v2.075c1.666-3.041,8.352-3.265,8.352,2.911Z" fill="#f7f1e5"/>
</svg>
