<svg xmlns="http://www.w3.org/2000/svg" width="101.966" height="88.136" viewBox="0 0 101.966 88.136">
  <g id="Group_2" data-name="Group 2" transform="translate(-106.033 -80.982)">
    <g id="eye_hand" transform="translate(93.636 60.855)">
      <g id="Group_1" data-name="Group 1">
        <circle id="Ellipse_1" data-name="Ellipse 1" cx="8" cy="8" r="8" transform="translate(83.364 33.145)" fill="#459599"/>
        <path id="Path_1" data-name="Path 1" d="M91.547,31.831C85.078,34.6,80.086,34.9,76.133,40.186a1.241,1.241,0,0,0,.025,1.488A20.014,20.014,0,0,0,92.251,49.5c6.04.118,11.077-1.925,15.03-7.21a1.242,1.242,0,0,0-.026-1.488C103.12,35.355,97.587,31.949,91.547,31.831Zm.707,16.043a6.931,6.931,0,0,1-7.184-7.191,6.367,6.367,0,0,1,6.1-6.072A6.931,6.931,0,0,1,98.351,41.8,6.382,6.382,0,0,1,92.254,47.874Z" fill="#f7f1e5"/>
        <path id="Path_2" data-name="Path 2" d="M92,44.809a3.735,3.735,0,0,1-3.869-3.872,3.422,3.422,0,0,1,3.281-3.267,3.735,3.735,0,0,1,3.869,3.872A3.422,3.422,0,0,1,92,44.809Z" fill="#f7f1e5"/>
      </g>
      <path id="Path_3" data-name="Path 3" d="M100.558,84.315l.066,0,.064-.021a3.127,3.127,0,0,1,3.029.521,7.99,7.99,0,0,1,2.274,3.271,7.891,7.891,0,0,1,.65,4.651A3.448,3.448,0,0,1,104.27,95.4L35.652,106.6l-.038.006-.036.012c-4.155,1.352-7.433.481-10.068-1.916-2.667-2.428-4.7-6.449-6.23-11.447L14.493,74.038l0-.013,0-.013C11.039,62.723,16.44,54.05,18.539,50.681a12.389,12.389,0,0,0,.718-1.23L29.872,24.89l-.455-.2.455.2a5.766,5.766,0,0,1,8.55-2.783l.264-.43-.264.43a6.328,6.328,0,0,1,2,3.155,28.513,28.513,0,0,1,1.331,5.583c.008.055-.04-.558,0-.19a48.477,48.477,0,0,1-.226,5.978c-.038,1.819-1.567,4.111-1.936,4.965l-2.2,3.448L42.79,43.2l3.06-1.6h.1l.093-.04L93.655,21.343c2.531-.809,5.456.922,6.411,4.051a2.8,2.8,0,0,1-.011,1.868,3.538,3.538,0,0,1-1.1,1.438,12.671,12.671,0,0,1-4.023,1.955l-.043.014-.04.022L64.484,47.129a2.717,2.717,0,0,0-1.5,3.422,2.6,2.6,0,0,0,3.122,1.919l40.412-4.74.049-.006.047-.015c2.536-.825,5.473.907,6.431,4.045.953,3.119-.469,6.258-2.976,7.106L69.666,63.6l-.049.006-.047.015a2.709,2.709,0,0,0-1.542,3.438,2.6,2.6,0,0,0,3.112,1.922l33.743-2.574.059,0,.057-.018c2.719-.885,5.908,1.178,6.606,4.746a5.537,5.537,0,0,1-3.279,6.446l-33.6,2.529-.06,0-.057.019a2.709,2.709,0,0,0-1.542,3.438,2.6,2.6,0,0,0,3.105,1.924Z" fill="#459599" stroke="#f7f1e5" stroke-width="2"/>
    </g>
  </g>
</svg>
